<svg width="24" height="24" viewBox="0 0 24 24" fill="none" xmlns="http://www.w3.org/2000/svg">
<path d="M6.13165 5.89502H6.43209C6.88868 5.89502 7.2588 5.51811 7.2588 5.05343V2.731V1.8623C7.2588 1.39762 6.88868 1.02075 6.43209 1.02075H6.13165C5.67511 1.02075 5.30499 1.39762 5.30499 1.8623V2.73104V5.05343C5.30499 5.51811 5.67511 5.89502 6.13165 5.89502Z" fill="white"/>
<path d="M16.7353 5.87427H17.0357C17.4922 5.87427 17.8624 5.4974 17.8624 5.03268V2.51068V1.8415C17.8624 1.37687 17.4922 1 17.0357 1H16.7353C16.2786 1 15.9085 1.37687 15.9085 1.8415V2.51068V5.03263C15.9086 5.4974 16.2787 5.87427 16.7353 5.87427Z" fill="white"/>
<path d="M20.6561 2.7312H18.5344V5.25315C18.5344 6.09443 17.8621 6.55845 17.0358 6.55845H16.7354C15.909 6.55845 15.2367 5.87402 15.2367 5.03274V2.7312H7.93083V5.05359C7.93083 5.89487 7.25855 6.5793 6.43214 6.5793H6.13171C5.30535 6.5793 4.63306 5.89487 4.63306 5.05359V2.7312H2.34396C1.60291 2.7312 1 3.34497 1 4.09941V20.6319C1 21.3863 1.60291 22.0001 2.34396 22.0001H20.6561C21.3971 22.0001 22 21.3863 22 20.6319V4.09941C22.0001 3.34501 21.3971 2.7312 20.6561 2.7312ZM20.6561 20.6319H2.34401L2.34396 8.14699H20.6563L20.657 20.6319C20.6569 20.6319 20.6567 20.6319 20.6561 20.6319Z" fill="white"/>
<path d="M12.1938 12.3346H14.6069C14.7026 12.3346 14.7802 12.2557 14.7802 12.1583V10.0311C14.7802 9.93369 14.7026 9.85474 14.6069 9.85474H12.1938C12.0981 9.85474 12.0206 9.93369 12.0206 10.0311V12.1583C12.0206 12.2557 12.0981 12.3346 12.1938 12.3346Z" fill="white"/>
<path d="M16.132 12.3346H18.5452C18.6408 12.3346 18.7184 12.2557 18.7184 12.1583V10.0311C18.7184 9.93369 18.6408 9.85474 18.5452 9.85474H16.132C16.0364 9.85474 15.9588 9.93369 15.9588 10.0311V12.1583C15.9588 12.2557 16.0364 12.3346 16.132 12.3346Z" fill="white"/>
<path d="M4.3175 15.8173H6.73062C6.82628 15.8173 6.90384 15.7384 6.90384 15.641V13.5137C6.90384 13.4164 6.82628 13.3374 6.73062 13.3374H4.3175C4.22184 13.3374 4.14429 13.4164 4.14429 13.5137V15.641C4.14429 15.7384 4.22184 15.8173 4.3175 15.8173Z" fill="white"/>
<path d="M8.25567 15.8173H10.6688C10.7645 15.8173 10.842 15.7384 10.842 15.641V13.5137C10.842 13.4164 10.7645 13.3374 10.6688 13.3374H8.25567C8.16001 13.3374 8.08246 13.4164 8.08246 13.5137V15.641C8.08246 15.7384 8.16001 15.8173 8.25567 15.8173Z" fill="white"/>
<path d="M12.1938 15.8173H14.607C14.7026 15.8173 14.7802 15.7384 14.7802 15.641V13.5137C14.7802 13.4164 14.7026 13.3374 14.607 13.3374H12.1938C12.0982 13.3374 12.0206 13.4164 12.0206 13.5137V15.641C12.0206 15.7384 12.0982 15.8173 12.1938 15.8173Z" fill="white"/>
<path d="M16.132 15.8173H18.5452C18.6408 15.8173 18.7184 15.7384 18.7184 15.641V13.5137C18.7184 13.4164 18.6408 13.3374 18.5452 13.3374H16.132C16.0364 13.3374 15.9588 13.4164 15.9588 13.5137V15.641C15.9588 15.7384 16.0364 15.8173 16.132 15.8173Z" fill="white"/>
<path d="M6.73064 16.8198H4.31756C4.2219 16.8198 4.14435 16.8988 4.14435 16.9962V19.1234C4.14435 19.2208 4.2219 19.2998 4.31756 19.2998H6.73068C6.82634 19.2998 6.9039 19.2208 6.9039 19.1234V16.9962C6.90385 16.8988 6.8263 16.8198 6.73064 16.8198Z" fill="white"/>
<path d="M10.6689 16.8198H8.25573C8.16008 16.8198 8.08252 16.8988 8.08252 16.9962V19.1234C8.08252 19.2208 8.16008 19.2998 8.25573 19.2998H10.6689C10.7645 19.2998 10.8421 19.2208 10.8421 19.1234V16.9962C10.8421 16.8988 10.7645 16.8198 10.6689 16.8198Z" fill="white"/>
<path d="M14.6071 16.8198H12.194C12.0983 16.8198 12.0208 16.8988 12.0208 16.9962V19.1234C12.0208 19.2208 12.0983 19.2998 12.194 19.2998H14.6071C14.7028 19.2998 14.7803 19.2208 14.7803 19.1234V16.9962C14.7803 16.8988 14.7028 16.8198 14.6071 16.8198Z" fill="white"/>
<path d="M18.5452 16.8198H16.132C16.0364 16.8198 15.9588 16.8988 15.9588 16.9962V19.1234C15.9588 19.2208 16.0364 19.2998 16.132 19.2998H18.5452C18.6408 19.2998 18.7184 19.2208 18.7184 19.1234V16.9962C18.7184 16.8988 18.6408 16.8198 18.5452 16.8198Z" fill="white"/>
</svg>
