<svg width="24" height="24" viewBox="0 0 24 24" fill="none" xmlns="http://www.w3.org/2000/svg">
<path d="M11.9991 19.3928C10.5967 19.3928 9.45575 18.2517 9.45575 16.849C9.45575 16.5349 9.71037 16.2803 10.0245 16.2803H13.974C14.2882 16.2803 14.5428 16.5349 14.5428 16.849C14.5428 18.2517 13.4017 19.3928 11.9991 19.3928ZM10.7134 17.4178C10.9322 17.9107 11.4262 18.2553 11.9991 18.2553C12.5722 18.2553 13.0663 17.9107 13.2852 17.4178H10.7134Z" fill="#2E2E2E" fill-opacity="0.5"/>
<path d="M18.4313 17.4175C18.4311 17.4175 18.4309 17.4175 18.4306 17.4175H5.56875C5.25462 17.4175 5 17.1628 5 16.8487C5 15.6042 5.74943 14.504 6.86904 14.0358V10.0774C6.86904 8.72116 7.39719 7.44611 8.35621 6.48713C9.31518 5.52812 10.5901 5 11.9462 5H12.0532C13.3896 5 14.698 5.54205 15.6431 6.48716C16.6021 7.44614 17.1303 8.7212 17.1303 10.0775V14.0358C18.2404 14.5001 18.9866 15.5855 18.9991 16.817C18.9998 16.8275 19 16.8381 19 16.8488C19 17.1628 18.7454 17.4175 18.4313 17.4175ZM6.22344 16.28H17.7759C17.5827 15.6574 17.0791 15.1619 16.4218 14.9953C16.1695 14.9314 15.9928 14.7043 15.9928 14.444V10.0774C15.9928 9.02501 15.583 8.03557 14.8388 7.29148C14.1054 6.55808 13.0901 6.13749 12.0532 6.13749H11.9462C10.8939 6.13749 9.90465 6.54731 9.16055 7.29148C8.41635 8.03561 8.00653 9.02505 8.00653 10.0775V14.4441C8.00653 14.7044 7.82983 14.9314 7.57752 14.9954C6.92023 15.1619 6.41664 15.6574 6.22344 16.28Z" fill="#2E2E2E" fill-opacity="0.5"/>
</svg>
